<svg width="101" height="71" viewBox="0 0 101 71" fill="none" xmlns="http://www.w3.org/2000/svg">
<path d="M71.7696 18.8626C71.7737 17.9725 71.4353 17.4407 70.6547 17.0248C65.3633 14.2038 60.0865 11.3577 54.8166 8.49705C54.8166 8.31589 54.8166 8.13648 54.8073 7.95765C54.7957 7.72116 54.8737 7.62388 55.0986 7.54583C56.8268 6.9476 57.926 5.15759 57.6679 3.39204C57.3878 1.47562 55.8605 0.0776296 53.9638 0.00306998C51.7608 -0.0843046 49.8904 1.70513 49.9213 3.87085C49.9277 4.32928 50.1823 4.69509 50.5941 4.83838C51.2651 5.07254 51.8902 4.60713 51.9338 3.84231C51.9985 2.70644 52.9701 1.8758 54.0541 2.03016C55.1481 2.18569 55.8645 3.22253 55.6269 4.30598C55.4463 5.13021 54.7659 5.67834 53.8229 5.75989C53.146 5.81872 52.8041 6.18803 52.8018 6.86955C52.8 7.41476 52.8012 7.95998 52.8012 8.5052C52.7907 8.51102 52.7808 8.51452 52.7703 8.52034C47.4981 11.3868 42.2131 14.2306 36.9171 17.0516C36.1534 17.4582 35.8429 17.9888 35.8511 18.8404C35.8796 21.6941 35.8622 24.5483 35.8622 27.4026C35.8622 30.2318 35.8843 33.061 35.8493 35.8896C35.8383 36.7814 36.182 37.3138 36.9625 37.7297C42.1712 40.5041 47.3717 43.2931 52.549 46.124C53.4402 46.611 54.1578 46.6337 55.0549 46.1427C60.2537 43.2983 65.4752 40.4948 70.7031 37.704C71.4615 37.2992 71.772 36.7668 71.769 35.9123C71.7475 30.2294 71.7457 24.546 71.7702 18.8632L71.7696 18.8626ZM68.7488 35.8389C64.3573 38.1788 59.9805 40.5466 55.5978 42.904C55.4719 42.9716 55.3304 43.01 55.0968 43.1009C55.0968 42.0075 55.0968 40.987 55.0968 39.9676C55.0968 39.6671 55.1067 39.3659 55.0921 39.0665C55.0485 38.1776 54.5295 37.6149 53.7833 37.6324C53.0627 37.6499 52.5548 38.1922 52.5332 39.0438C52.5064 40.0946 52.5245 41.1472 52.5233 42.1986C52.5233 42.4683 52.5233 42.7391 52.5233 43.1131C52.2233 42.9791 52.0195 42.9028 51.8296 42.8009C47.536 40.489 43.2407 38.1811 38.961 35.8435C38.7176 35.7107 38.4566 35.3374 38.4543 35.0746C38.424 30.3925 38.4327 25.7104 38.4351 21.0283C38.4351 20.9118 38.4642 20.7953 38.4916 20.5868C39.4929 21.1221 40.4324 21.6283 41.3755 22.1275C42.2807 22.6069 43.0065 22.47 43.3915 21.757C43.7696 21.0568 43.4754 20.3526 42.59 19.8691C41.7349 19.4014 40.8746 18.9436 39.9175 18.428C40.1458 18.2789 40.3084 18.156 40.4849 18.0605C44.7324 15.7684 48.9777 13.4727 53.2386 11.2068C53.5147 11.0595 53.9877 11.0024 54.2446 11.1387C58.6407 13.4704 63.0176 15.8388 67.3974 18.2009C67.4807 18.2457 67.5523 18.3115 67.7149 18.4292C66.7112 18.9698 65.8054 19.4474 64.9096 19.9437C64.1226 20.3794 63.8663 21.0761 64.2222 21.7477C64.5822 22.4263 65.3097 22.6179 66.1008 22.2079C67.0939 21.6935 68.0737 21.1547 69.1373 20.5844C69.1583 20.8967 69.1851 21.1104 69.1857 21.3242C69.188 25.856 69.1857 30.3879 69.1897 34.9197C69.1897 35.3053 69.1793 35.6088 68.7482 35.8383L68.7488 35.8389Z" fill="url(#paint0_linear_4135_41)"/>
<path d="M58.1526 23.5938C56.8711 24.2706 55.6082 24.9859 54.3093 25.6267C54.0361 25.7618 53.5817 25.7595 53.3085 25.6243C52.055 25.0034 50.8388 24.3079 49.6027 23.6514C49.3202 23.5017 49.0115 23.4015 48.7983 23.313C48.0905 23.3829 47.6426 23.6491 47.4684 24.2566C47.2739 24.9364 47.5459 25.4397 48.1342 25.7641C49.4029 26.4649 50.6762 27.1586 51.9641 27.8233C52.3707 28.033 52.5548 28.2805 52.5327 28.7506C52.4971 29.5247 52.5053 30.3024 52.5303 31.0777C52.5595 31.9782 53.0715 32.5089 53.8421 32.4896C54.5813 32.4716 55.0584 31.9561 55.0881 31.0852C55.1143 30.3105 55.123 29.5323 55.0863 28.7588C55.0642 28.2869 55.2494 28.0394 55.6543 27.8308C56.8991 27.1913 58.1299 26.5243 59.3566 25.8503C60.1762 25.3995 60.4307 24.672 60.0416 23.9864C59.6758 23.3404 58.9407 23.1784 58.152 23.5949L58.1526 23.5938Z" fill="url(#paint1_linear_4135_41)"/>
<path d="M6.94235 50.7403H0.923401V65.788H6.94235C9.02011 65.788 10.7577 65.068 12.1551 63.6275C13.5525 62.187 14.2509 60.3999 14.2509 58.2639C14.2509 56.1278 13.5525 54.3407 12.1551 52.9002C10.7577 51.4597 9.02011 50.7397 6.94235 50.7397V50.7403ZM9.83386 61.3272C9.09584 62.0938 8.1318 62.4771 6.94235 62.4771H4.36246V54.0507H6.94235C8.1318 54.0507 9.09525 54.4339 9.83386 55.2005C10.5719 55.9677 10.9406 56.9882 10.9406 58.2639C10.9406 59.5395 10.5713 60.5606 9.83386 61.3272Z" fill="url(#paint2_linear_4135_41)"/>
<path d="M17.6906 50.2241C17.1599 50.2241 16.705 50.414 16.3258 50.7938C15.9466 51.1736 15.7561 51.6285 15.7561 52.1586C15.7561 52.6887 15.946 53.1442 16.3258 53.5234C16.7056 53.9032 17.1605 54.0931 17.6906 54.0931C18.2207 54.0931 18.6756 53.9032 19.0554 53.5234C19.4352 53.1436 19.6251 52.6887 19.6251 52.1586C19.6251 51.6285 19.4352 51.1736 19.0554 50.7938C18.6756 50.414 18.2207 50.2241 17.6906 50.2241Z" fill="url(#paint3_linear_4135_41)"/>
<path d="M19.3029 55.0396H16.0782V65.7878H19.3029V55.0396Z" fill="url(#paint4_linear_4135_41)"/>
<path d="M29.5572 56.1362C28.8116 55.2048 27.7655 54.7388 26.4187 54.7388C24.9141 54.7388 23.6565 55.2729 22.6459 56.3401C21.6358 57.4078 21.1302 58.6939 21.1302 60.1985C21.1302 61.7031 21.6353 62.9898 22.6459 64.057C23.6559 65.1247 24.9135 65.6583 26.4187 65.6583C27.7655 65.6583 28.8116 65.1928 29.5572 64.2609V65.2499C29.5572 65.995 29.3423 66.5646 28.9124 66.959C28.4825 67.3527 27.8878 67.5502 27.1282 67.5502C25.9813 67.5502 25.1646 67.0988 24.6776 66.1959L21.9259 67.7867C22.9004 69.5208 24.5984 70.3876 27.0204 70.3876C28.5967 70.3876 29.9364 69.9542 31.0403 69.0868C32.1435 68.2195 32.6957 66.9403 32.6957 65.2499V55.0388H29.5572V56.135V56.1362ZM28.8262 62.0048C28.3386 62.4638 27.7154 62.6928 26.9558 62.6928C26.1962 62.6928 25.5724 62.4638 25.0854 62.0048C24.5978 61.5464 24.3543 60.9447 24.3543 60.1991C24.3543 59.4535 24.5978 58.8524 25.0854 58.3934C25.5724 57.9349 26.1956 57.7054 26.9558 57.7054C27.7159 57.7054 28.3386 57.9349 28.8262 58.3934C29.3131 58.8524 29.5572 59.4541 29.5572 60.1991C29.5572 60.9441 29.3131 61.5464 28.8262 62.0048Z" fill="url(#paint5_linear_4135_41)"/>
<path d="M38.2848 55.0396H35.0601V65.7878H38.2848V55.0396Z" fill="url(#paint6_linear_4135_41)"/>
<path d="M36.6724 50.2241C36.1418 50.2241 35.6868 50.414 35.3076 50.7938C34.9284 51.1736 34.7379 51.6285 34.7379 52.1586C34.7379 52.6887 34.9278 53.1442 35.3076 53.5234C35.6874 53.9032 36.1423 54.0931 36.6724 54.0931C37.2025 54.0931 37.6574 53.9032 38.0372 53.5234C38.417 53.1436 38.6069 52.6887 38.6069 52.1586C38.6069 51.6285 38.417 51.1736 38.0372 50.7938C37.6574 50.414 37.2025 50.2241 36.6724 50.2241Z" fill="url(#paint7_linear_4135_41)"/>
<path d="M51.3193 64.3158L48.334 55.0396H47.1842L44.175 64.391L41.2811 55.0396H40.1761L43.5121 65.7878H44.6963L47.7137 56.5517L50.731 65.7878H51.9135L55.2302 55.0396H54.1706L51.3193 64.3158Z" fill="url(#paint8_linear_4135_41)"/>
<path d="M62.0815 54.8033C60.4476 54.8033 59.1114 55.3375 58.0722 56.4046C57.033 57.4723 56.514 58.8086 56.514 60.4139C56.514 62.0193 57.0441 63.3911 58.1048 64.4448C59.165 65.498 60.5193 66.0245 62.1677 66.0245C63.2139 66.0245 64.1453 65.8061 64.9626 65.3686C65.7792 64.9318 66.4101 64.3405 66.8545 63.5949L65.9085 63.0363C65.5788 63.6241 65.0919 64.0971 64.4471 64.4553C63.8022 64.8135 63.0496 64.9929 62.1899 64.9929C60.9573 64.9929 59.9222 64.6242 59.0834 63.8856C58.2452 63.1476 57.7612 62.1766 57.6324 60.9725H67.3706C67.3706 60.9155 67.3741 60.8292 67.3811 60.7145C67.3881 60.5997 67.3916 60.5141 67.3916 60.4565C67.3916 58.9233 66.9005 57.5976 65.919 56.4797C64.9375 55.3619 63.6584 54.8027 62.0821 54.8027L62.0815 54.8033ZM57.6318 59.9194C57.7466 58.7154 58.212 57.7339 59.0292 56.9743C59.8459 56.2147 60.8635 55.8349 62.0815 55.8349C63.1702 55.8349 64.1127 56.1972 64.9084 56.9207C65.7035 57.6447 66.1584 58.6443 66.2732 59.9194H57.6313H57.6318Z" fill="url(#paint9_linear_4135_41)"/>
<path d="M79.3648 57.4687C78.9058 56.6375 78.2755 55.9857 77.4729 55.5127C76.6702 55.0397 75.7603 54.8032 74.7427 54.8032C73.209 54.8032 71.8978 55.3444 70.8085 56.4261C69.7192 57.5083 69.1746 58.8376 69.1746 60.4138C69.1746 61.9901 69.7192 63.3193 70.8085 64.4016C71.8972 65.4839 73.209 66.0244 74.7427 66.0244C75.7603 66.0244 76.6702 65.788 77.4729 65.315C78.2755 64.842 78.9058 64.1902 79.3648 63.3589V65.788H80.4611V55.0397H79.3648V57.4687ZM78.0536 63.6595C77.1793 64.5484 76.1046 64.9923 74.8289 64.9923C73.5532 64.9923 72.475 64.5484 71.5937 63.6595C70.7124 62.7712 70.2714 61.6889 70.2714 60.4133C70.2714 59.1376 70.7124 58.0559 71.5937 57.167C72.475 56.2787 73.5532 55.8342 74.8289 55.8342C76.1046 55.8342 77.1793 56.2787 78.0536 57.167C78.9274 58.0559 79.3648 59.1376 79.3648 60.4133C79.3648 61.6889 78.9274 62.7706 78.0536 63.6595Z" fill="url(#paint10_linear_4135_41)"/>
<path d="M84.8461 57.1458V55.039H83.7714V65.7872H84.8461V59.8114C84.8461 58.5217 85.1904 57.5507 85.8777 56.8983C86.5656 56.2465 87.4178 55.9203 88.436 55.9203V54.8887C86.6874 54.8887 85.4909 55.6413 84.8461 57.1458Z" fill="url(#paint11_linear_4135_41)"/>
<path d="M91.1446 50.7402C90.9151 50.7402 90.7148 50.8229 90.5429 50.9872C90.3711 51.1521 90.2849 51.3495 90.2849 51.5784C90.2849 51.8225 90.3711 52.0264 90.5429 52.1912C90.7148 52.3561 90.9151 52.4382 91.1446 52.4382C91.3742 52.4382 91.5745 52.3561 91.7464 52.1912C91.9182 52.0264 92.0044 51.8225 92.0044 51.5784C92.0044 51.3495 91.9182 51.1521 91.7464 50.9872C91.5745 50.8224 91.3736 50.7402 91.1446 50.7402Z" fill="url(#paint12_linear_4135_41)"/>
<path d="M91.6823 55.0396H90.6076V65.7878H91.6823V55.0396Z" fill="url(#paint13_linear_4135_41)"/>
<path d="M100.496 56.0927V55.0396H97.2929V52.0298L96.1967 52.3525V55.0396H93.8323V56.0927H96.1967V63.0792C96.1967 64.2686 96.5514 65.0713 97.2609 65.4866C97.9704 65.902 99.0486 66.0027 100.496 65.7878V64.8203C99.765 64.8919 99.1633 64.91 98.6903 64.8738C98.2173 64.8383 97.8661 64.684 97.6372 64.4119C97.4077 64.1399 97.2935 63.6955 97.2935 63.0792V56.0927H100.497H100.496Z" fill="url(#paint14_linear_4135_41)"/>
<defs>
<linearGradient id="paint0_linear_4135_41" x1="73.9056" y1="30.5032" x2="36.4027" y2="16.853" gradientUnits="userSpaceOnUse">
<stop stop-color="#D9027D"/>
<stop offset="0.87" stop-color="#037EF3"/>
</linearGradient>
<linearGradient id="paint1_linear_4135_41" x1="58.7729" y1="28.7966" x2="47.3275" y2="24.6306" gradientUnits="userSpaceOnUse">
<stop stop-color="#D9027D"/>
<stop offset="0.87" stop-color="#037EF3"/>
</linearGradient>
<linearGradient id="paint2_linear_4135_41" x1="27.0001" y1="66.4054" x2="-96.8581" y2="21.3248" gradientUnits="userSpaceOnUse">
<stop offset="0.13" stop-color="#037EF3"/>
<stop offset="1" stop-color="#D9027D"/>
</linearGradient>
<linearGradient id="paint3_linear_4135_41" x1="46.0448" y1="62.4787" x2="-70.8018" y2="19.95" gradientUnits="userSpaceOnUse">
<stop offset="0.13" stop-color="#037EF3"/>
<stop offset="1" stop-color="#D9027D"/>
</linearGradient>
<linearGradient id="paint4_linear_4135_41" x1="55.684" y1="74.2416" x2="-92.9082" y2="20.1591" gradientUnits="userSpaceOnUse">
<stop offset="0.13" stop-color="#037EF3"/>
<stop offset="1" stop-color="#D9027D"/>
</linearGradient>
<linearGradient id="paint5_linear_4135_41" x1="68.2892" y1="76.9593" x2="-55.4548" y2="31.9206" gradientUnits="userSpaceOnUse">
<stop offset="0.13" stop-color="#037EF3"/>
<stop offset="1" stop-color="#D9027D"/>
</linearGradient>
<linearGradient id="paint6_linear_4135_41" x1="96.9236" y1="82.3429" x2="-51.6686" y2="28.2598" gradientUnits="userSpaceOnUse">
<stop offset="0.13" stop-color="#037EF3"/>
<stop offset="1" stop-color="#D9027D"/>
</linearGradient>
<linearGradient id="paint7_linear_4135_41" x1="82.5289" y1="68.8495" x2="-34.3177" y2="26.3208" gradientUnits="userSpaceOnUse">
<stop offset="0.13" stop-color="#037EF3"/>
<stop offset="1" stop-color="#D9027D"/>
</linearGradient>
<linearGradient id="paint8_linear_4135_41" x1="102.739" y1="79.8376" x2="-13.582" y2="37.5006" gradientUnits="userSpaceOnUse">
<stop offset="0.13" stop-color="#037EF3"/>
<stop offset="1" stop-color="#D9027D"/>
</linearGradient>
<linearGradient id="paint9_linear_4135_41" x1="134.615" y1="86.8261" x2="14.647" y2="43.1615" gradientUnits="userSpaceOnUse">
<stop offset="0.13" stop-color="#037EF3"/>
<stop offset="1" stop-color="#D9027D"/>
</linearGradient>
<linearGradient id="paint10_linear_4135_41" x1="162.498" y1="91.6194" x2="40.3427" y2="47.1585" gradientUnits="userSpaceOnUse">
<stop offset="0.13" stop-color="#037EF3"/>
<stop offset="1" stop-color="#D9027D"/>
</linearGradient>
<linearGradient id="paint11_linear_4135_41" x1="175.347" y1="92.8203" x2="60.0806" y2="50.8666" gradientUnits="userSpaceOnUse">
<stop offset="0.13" stop-color="#037EF3"/>
<stop offset="1" stop-color="#D9027D"/>
</linearGradient>
<linearGradient id="paint12_linear_4135_41" x1="187.046" y1="86.4945" x2="70.2925" y2="43.9994" gradientUnits="userSpaceOnUse">
<stop offset="0.13" stop-color="#037EF3"/>
<stop offset="1" stop-color="#D9027D"/>
</linearGradient>
<linearGradient id="paint13_linear_4135_41" x1="235.706" y1="113.029" x2="62.65" y2="50.0426" gradientUnits="userSpaceOnUse">
<stop offset="0.13" stop-color="#037EF3"/>
<stop offset="1" stop-color="#D9027D"/>
</linearGradient>
<linearGradient id="paint14_linear_4135_41" x1="216.244" y1="102.079" x2="81.9715" y2="53.2082" gradientUnits="userSpaceOnUse">
<stop offset="0.13" stop-color="#037EF3"/>
<stop offset="1" stop-color="#D9027D"/>
</linearGradient>
</defs>
</svg>
